<?xml version="1.0" standalone="no"?>
<!DOCTYPE svg PUBLIC "-//W3C//DTD SVG 20010904//EN"
 "http://www.w3.org/TR/2001/REC-SVG-20010904/DTD/svg10.dtd">
<svg version="1.0" xmlns="http://www.w3.org/2000/svg"
 width="347.000000pt" height="359.000000pt" viewBox="0 0 347.000000 359.000000"
 preserveAspectRatio="xMidYMid meet">
<metadata>
Created by potrace 1.16, written by Peter Selinger 2001-2019
</metadata>
<g transform="translate(0.000000,359.000000) scale(0.100000,-0.100000)"
fill="#000000" stroke="none">
<path d="M1553 3248 c-12 -13 -50 -68 -85 -123 -35 -55 -71 -111 -81 -125 -10
-14 -218 -335 -463 -715 -245 -379 -452 -697 -460 -706 -8 -8 -14 -21 -14 -28
0 -7 42 -56 93 -109 486 -504 971 -1002 976 -1002 4 0 27 -19 51 -43 25 -23
70 -62 100 -85 30 -23 82 -69 115 -102 63 -63 81 -71 92 -43 4 10 248 340 543
733 589 785 613 817 608 830 -2 5 -255 276 -564 602 -308 326 -580 617 -605
646 -34 41 -279 292 -284 292 -1 0 -11 -10 -22 -22z m139 -1050 c1 -2 4 -174
7 -383 l6 -380 170 0 170 0 3 -76 c3 -69 0 -80 -22 -105 l-24 -29 -167 -4
c-92 -2 -196 0 -231 4 -101 11 -97 -9 -102 420 -2 200 -1 407 3 459 l7 96 89
0 c49 0 90 -1 91 -2z"/>
</g>
</svg>
