<?xml version="1.0" standalone="no"?>
<!DOCTYPE svg PUBLIC "-//W3C//DTD SVG 20010904//EN"
 "http://www.w3.org/TR/2001/REC-SVG-20010904/DTD/svg10.dtd">
<svg version="1.0" xmlns="http://www.w3.org/2000/svg"
 width="279.000000pt" height="317.000000pt" viewBox="0 0 279.000000 317.000000"
 preserveAspectRatio="xMidYMid meet">
<metadata>
Created by potrace 1.16, written by Peter Selinger 2001-2019
</metadata>
<g transform="translate(0.000000,317.000000) scale(0.100000,-0.100000)"
fill="#000000" stroke="none">
<path d="M755 2325 c-302 -464 -554 -850 -559 -858 -7 -11 160 -192 678 -736
378 -396 693 -721 701 -721 11 0 1184 1562 1193 1589 2 5 -319 350 -713 767
-394 418 -721 769 -726 782 -5 12 -12 22 -16 21 -5 0 -255 -380 -558 -844z
m682 -257 c4 -7 10 -179 13 -383 l5 -370 170 0 170 0 3 -60 c4 -71 -11 -130
-36 -141 -24 -10 -330 -18 -408 -9 -100 10 -96 -9 -102 418 -2 200 -1 407 3
460 l7 97 83 0 c56 0 87 -4 92 -12z"/>
</g>
</svg>
